<mxfile host="app.diagrams.net" agent="Mozilla/5.0 (Windows NT 10.0; Win64; x64) AppleWebKit/537.36 (KHTML, like Gecko) Chrome/131.0.0.0 Safari/537.36" version="25.0.3">
  <diagram name="内存池" id="auMswNlSUPk9TMeBMvKS">
    <mxGraphModel dx="992" dy="786" grid="1" gridSize="10" guides="1" tooltips="1" connect="1" arrows="1" fold="1" page="1" pageScale="1" pageWidth="827" pageHeight="1169" math="0" shadow="0">
      <root>
        <mxCell id="0" />
        <mxCell id="1" parent="0" />
        <mxCell id="bCJNEEUH5Nz1SLZWFqeM-1" value="" style="rounded=0;whiteSpace=wrap;html=1;" vertex="1" parent="1">
          <mxGeometry x="170" y="352.5" width="50" height="35" as="geometry" />
        </mxCell>
        <mxCell id="bCJNEEUH5Nz1SLZWFqeM-2" value="&lt;font style=&quot;font-size: 18px;&quot;&gt;&lt;b&gt;blocks_&lt;/b&gt;&lt;/font&gt;" style="text;html=1;align=center;verticalAlign=middle;resizable=0;points=[];autosize=1;strokeColor=none;fillColor=none;" vertex="1" parent="1">
          <mxGeometry x="75" y="350" width="90" height="40" as="geometry" />
        </mxCell>
        <mxCell id="bCJNEEUH5Nz1SLZWFqeM-3" value="" style="rounded=0;whiteSpace=wrap;html=1;" vertex="1" parent="1">
          <mxGeometry x="220" y="352.5" width="50" height="35" as="geometry" />
        </mxCell>
        <mxCell id="bCJNEEUH5Nz1SLZWFqeM-4" value="" style="rounded=0;whiteSpace=wrap;html=1;" vertex="1" parent="1">
          <mxGeometry x="270" y="352.5" width="50" height="35" as="geometry" />
        </mxCell>
        <mxCell id="bCJNEEUH5Nz1SLZWFqeM-5" value="" style="rounded=0;whiteSpace=wrap;html=1;" vertex="1" parent="1">
          <mxGeometry x="320" y="352.5" width="50" height="35" as="geometry" />
        </mxCell>
        <mxCell id="bCJNEEUH5Nz1SLZWFqeM-6" value="" style="rounded=0;whiteSpace=wrap;html=1;" vertex="1" parent="1">
          <mxGeometry x="370" y="352.5" width="50" height="35" as="geometry" />
        </mxCell>
        <mxCell id="bCJNEEUH5Nz1SLZWFqeM-7" value="" style="rounded=0;whiteSpace=wrap;html=1;" vertex="1" parent="1">
          <mxGeometry x="420" y="352.5" width="50" height="35" as="geometry" />
        </mxCell>
        <mxCell id="bCJNEEUH5Nz1SLZWFqeM-8" value="" style="shape=flexArrow;endArrow=classic;html=1;rounded=0;" edge="1" parent="1">
          <mxGeometry width="50" height="50" relative="1" as="geometry">
            <mxPoint x="190" y="410" as="sourcePoint" />
            <mxPoint x="190" y="460" as="targetPoint" />
          </mxGeometry>
        </mxCell>
        <mxCell id="bCJNEEUH5Nz1SLZWFqeM-9" value="" style="rounded=0;whiteSpace=wrap;html=1;" vertex="1" parent="1">
          <mxGeometry x="170" y="470" width="40" height="40" as="geometry" />
        </mxCell>
        <mxCell id="bCJNEEUH5Nz1SLZWFqeM-10" value="" style="shape=flexArrow;endArrow=classic;html=1;rounded=0;" edge="1" parent="1">
          <mxGeometry width="50" height="50" relative="1" as="geometry">
            <mxPoint x="295" y="410" as="sourcePoint" />
            <mxPoint x="295" y="460" as="targetPoint" />
          </mxGeometry>
        </mxCell>
        <mxCell id="bCJNEEUH5Nz1SLZWFqeM-11" value="" style="rounded=0;whiteSpace=wrap;html=1;" vertex="1" parent="1">
          <mxGeometry x="275" y="470" width="40" height="90" as="geometry" />
        </mxCell>
        <mxCell id="bCJNEEUH5Nz1SLZWFqeM-12" value="" style="shape=flexArrow;endArrow=classic;html=1;rounded=0;" edge="1" parent="1">
          <mxGeometry width="50" height="50" relative="1" as="geometry">
            <mxPoint x="445" y="410" as="sourcePoint" />
            <mxPoint x="445" y="460" as="targetPoint" />
          </mxGeometry>
        </mxCell>
        <mxCell id="bCJNEEUH5Nz1SLZWFqeM-13" value="" style="rounded=0;whiteSpace=wrap;html=1;" vertex="1" parent="1">
          <mxGeometry x="425" y="470" width="40" height="170" as="geometry" />
        </mxCell>
        <mxCell id="bCJNEEUH5Nz1SLZWFqeM-14" value="&lt;b&gt;&lt;font style=&quot;font-size: 15px;&quot;&gt;alloc_ptr_&lt;/font&gt;&lt;/b&gt;" style="text;html=1;align=center;verticalAlign=middle;resizable=0;points=[];autosize=1;strokeColor=none;fillColor=none;" vertex="1" parent="1">
          <mxGeometry x="45" y="475" width="90" height="30" as="geometry" />
        </mxCell>
        <mxCell id="bCJNEEUH5Nz1SLZWFqeM-15" value="" style="rounded=0;whiteSpace=wrap;html=1;" vertex="1" parent="1">
          <mxGeometry x="170" y="510" width="40" height="40" as="geometry" />
        </mxCell>
        <mxCell id="bCJNEEUH5Nz1SLZWFqeM-16" value="" style="rounded=0;whiteSpace=wrap;html=1;" vertex="1" parent="1">
          <mxGeometry x="170" y="550" width="40" height="40" as="geometry" />
        </mxCell>
        <mxCell id="bCJNEEUH5Nz1SLZWFqeM-17" value="" style="rounded=0;whiteSpace=wrap;html=1;" vertex="1" parent="1">
          <mxGeometry x="170" y="590" width="40" height="40" as="geometry" />
        </mxCell>
        <mxCell id="bCJNEEUH5Nz1SLZWFqeM-18" value="" style="endArrow=classic;html=1;rounded=0;exitX=1;exitY=0.5;exitDx=0;exitDy=0;exitPerimeter=0;entryX=0;entryY=0.5;entryDx=0;entryDy=0;" edge="1" parent="1" source="bCJNEEUH5Nz1SLZWFqeM-14" target="bCJNEEUH5Nz1SLZWFqeM-9">
          <mxGeometry width="50" height="50" relative="1" as="geometry">
            <mxPoint x="140" y="660" as="sourcePoint" />
            <mxPoint x="190" y="610" as="targetPoint" />
          </mxGeometry>
        </mxCell>
      </root>
    </mxGraphModel>
  </diagram>
</mxfile>
